# xmcd
#
# Track frame offsets:
#	150
#	13171
#	27151
#	48529
#	65064
#	82226
#	92936
#	103341
#	120669
#	141144
#	159711
#	181754
#	194226
#	220214
#	241274
#	262141
#	286051
#	299274
#	311041
#
# Disc length: 4384 seconds
#
# Revision: 0
# Processed by: cddbd v1.4PL0 Copyright (c) Steve Scherf et al.
# Submitted via: dBpowerAMP V4.0
#
DISCID=2e111e13
DTITLE=Simon and Garfunkel - The Concert in Central Park (1981)
DYEAR=1900
DGENRE=Duet
TTITLE0=Mrs. Robinson
TTITLE1=Homeward Bound
TTITLE2=America
TTITLE3=Me And Julio Down By The Schoolyard
TTITLE4=Scarborough Fair
TTITLE5=April Come She Will
TTITLE6=Wake Up Little Susie
TTITLE7=Still Crazy After All These Years
TTITLE8=American Tune
TTITLE9=Late In The Evening
TTITLE10=Slip Slidin' Away
TTITLE11=A Heart In New York
TTITLE12=Kodachrome - Mabellene
TTITLE13=Bridge Over Troubled Water
TTITLE14=Fifty Ways To Leave Your Lover
TTITLE15=The Boxer
TTITLE16=Old Friend
TTITLE17=The 59th Street Bridge Song (Feelin' Groovy)
TTITLE18=The Sounds Of Silence
EXTD=Simon and Garfunkel\nThe Concert in Central Park (Sept. 19. 1981]\nThe David Geffen Company - Distribution Sony Music \nCD 88575
EXTT0=
EXTT1=
EXTT2=
EXTT3=
EXTT4=
EXTT5=
EXTT6=
EXTT7=
EXTT8=
EXTT9=
EXTT10=
EXTT11=
EXTT12=
EXTT13=
EXTT14=
EXTT15=
EXTT16=
EXTT17=
EXTT18=
PLAYORDER=
